<svg width="22" height="22" viewBox="0 0 22 22" fill="none" xmlns="http://www.w3.org/2000/svg">
<rect width="22" height="22" fill="black" fill-opacity="0"/>
<path d="M18.3332 17.9574V7.33325L12.8332 1.83325H5.49984C4.4915 1.83325 3.67567 2.65825 3.67567 3.66659L3.6665 18.3333C3.6665 19.3416 4.48234 20.1666 5.49067 20.1666H16.4998C16.9123 20.1666 17.279 20.0291 17.5907 19.7999L13.5298 15.7391C12.7965 16.2158 11.9348 16.4999 10.9998 16.4999C8.46984 16.4999 6.4165 14.4466 6.4165 11.9166C6.4165 9.38659 8.46984 7.33325 10.9998 7.33325C13.5298 7.33325 15.5832 9.38659 15.5832 11.9166C15.5832 12.8516 15.299 13.7133 14.8223 14.4374L18.3332 17.9574ZM8.24984 11.9166C8.24984 13.4383 9.47817 14.6666 10.9998 14.6666C12.5215 14.6666 13.7498 13.4383 13.7498 11.9166C13.7498 10.3949 12.5215 9.16659 10.9998 9.16659C9.47817 9.16659 8.24984 10.3949 8.24984 11.9166Z" fill="#0C54A0"/>
</svg>
