<svg width="168" height="52" viewBox="0 0 168 52" fill="none" xmlns="http://www.w3.org/2000/svg">
<rect width="168" height="52" fill="black" fill-opacity="0"/>
<rect width="168" height="52" fill="black" fill-opacity="0"/>
<path fill-rule="evenodd" clip-rule="evenodd" d="M164.115 13.2675C162.929 14.4444 161.256 15.1934 159.422 15.1934C156.077 15.1934 153.325 12.7325 152.84 9.57613H157.21C157.749 9.57613 158.181 9.14815 158.181 8.61317C158.181 8.07819 157.749 7.65021 157.21 7.65021H151.815C151.761 7.65021 151.653 7.65021 151.599 7.65021C151.113 7.7037 150.736 8.13169 150.736 8.61317C150.736 13.321 154.62 17.1728 159.368 17.1728C161.742 17.1728 163.9 16.2099 165.464 14.6584C165.842 14.2839 165.842 13.642 165.464 13.2675C165.14 12.893 164.493 12.893 164.115 13.2675ZM159.422 7.38272C159.961 7.38272 160.393 6.95473 160.393 6.41975V4.33333C160.393 3.79835 159.961 3.37037 159.422 3.37037C158.882 3.37037 158.451 3.79835 158.451 4.33333V6.36625C158.397 6.90123 158.882 7.38272 159.422 7.38272ZM159.368 0C164.169 0 168 3.85185 168 8.55967C168 9.04115 167.622 9.46914 167.137 9.52263C167.083 9.52263 166.975 9.52263 166.921 9.52263H161.58C161.04 9.52263 160.609 9.09465 160.609 8.55967C160.609 8.02469 161.04 7.59671 161.58 7.59671H165.896C165.41 4.44033 162.659 1.97942 159.314 1.97942C157.372 1.97942 155.699 2.78189 154.458 4.06584C154.081 4.44033 153.433 4.49383 153.056 4.11934C152.678 3.74486 152.624 3.10288 153.002 2.72839C154.674 1.06996 156.886 0 159.368 0ZM158.397 13.107V10.7531C158.397 10.2181 158.828 9.73663 159.368 9.73663C159.907 9.73663 160.339 10.1646 160.339 10.6996V13.0535C160.339 13.5885 159.907 14.0165 159.368 14.0165C158.882 14.07 158.397 13.642 158.397 13.107Z" fill="white"/>
<path fill-rule="evenodd" clip-rule="evenodd" d="M70.3507 23.0041H77.4181C77.8497 23.0041 78.2274 22.6296 78.2274 22.2551V19.9547C78.2274 19.5267 77.8497 19.2058 77.4181 19.2058H69.973C66.3044 19.2058 64.1464 21.3457 64.1464 24.9835V31.8848C64.1464 35.5226 66.3044 37.716 69.973 37.716H77.4181C77.8497 37.716 78.2274 37.3416 78.2274 36.9671V34.6132C78.2274 34.1852 77.8497 33.8642 77.4181 33.8642H70.3507C68.894 33.8642 68.1387 33.1152 68.1387 31.6708V25.358C68.1387 23.7531 68.894 23.0041 70.3507 23.0041ZM36.5241 36.9136L31.6146 22.2016C30.9133 19.9012 29.4566 18.7778 27.1368 18.7778C24.763 18.7778 23.4682 19.8477 22.659 22.2016L17.8035 36.9136C17.6416 37.3416 17.9114 37.6625 18.343 37.6625H20.9865C21.4181 37.6625 21.8497 37.3416 22.0116 36.9136L26.4355 23.3251C26.5434 22.8971 26.7592 22.6831 27.1368 22.6831C27.5145 22.6831 27.7303 22.8971 27.8382 23.3251L32.316 36.9136C32.4239 37.3416 32.9094 37.6625 33.341 37.6625H35.9846C36.4701 37.6625 36.6859 37.2881 36.5241 36.9136ZM56.5935 18.7243H51.2524C47.6917 18.7243 45.5337 20.8107 45.4258 24.2881V24.4486V24.5021V25.4115C45.4258 25.8395 45.0482 26.1605 44.6705 26.1605H42.4586C42.027 26.1605 41.7033 25.8395 41.7033 25.4115V19.9012C41.7033 19.4732 41.3256 19.1523 40.948 19.1523H38.5202C38.0886 19.1523 37.7649 19.5267 37.7649 19.9012V36.8601C37.7649 37.2881 38.0886 37.6091 38.5202 37.6091H40.948C41.3796 37.6091 41.7033 37.2346 41.7033 36.8601V30.8683C41.7033 30.4403 42.0809 30.1193 42.4586 30.1193H44.6705C45.1021 30.1193 45.4258 30.4403 45.4258 30.8683V32.2058C45.4258 35.8436 47.5838 38.037 51.2524 38.037H56.5935C60.262 38.037 62.42 35.8436 62.42 32.2058V24.5556C62.42 20.9177 60.262 18.7243 56.5935 18.7243ZM58.4817 31.8848C58.4817 33.3292 57.7264 34.0782 56.2698 34.0782H51.684C50.2274 34.0782 49.4721 33.3292 49.4721 31.8848V24.7695C49.4721 23.3251 50.2274 22.5761 51.684 22.5761H56.2698C57.7803 22.5761 58.4817 23.3251 58.4817 24.7695V31.8848ZM15.9152 19.1523C16.3468 19.1523 16.6705 19.5267 16.6705 19.9012V36.8601C16.6705 37.2881 16.2929 37.6091 15.9152 37.6091H13.4875C13.0559 37.6091 12.7322 37.2346 12.7322 36.8601V23.8066C12.7322 23.3786 12.4085 23.0576 11.9769 23.0576H4.69364C4.26204 23.0576 3.93834 23.4321 3.93834 23.8066V36.8601C3.93834 37.2881 3.56069 37.6091 3.18304 37.6091H0.755299C0.323699 37.6091 8.03916e-10 37.2346 8.03916e-10 36.8601V19.9012C8.03916e-10 19.4732 0.323699 19.1523 0.755299 19.1523H15.9152Z" fill="white"/>
<path fill-rule="evenodd" clip-rule="evenodd" d="M118.959 19.1523C119.391 19.1523 119.715 19.5267 119.715 19.9012V25.3045C119.715 25.7325 120.038 26.107 120.47 26.107H127.699C128.131 26.107 128.455 25.7325 128.455 25.3045V19.9012C128.455 19.4732 128.778 19.1523 129.264 19.1523H131.692C132.123 19.1523 132.447 19.5267 132.447 19.9012V36.8601C132.447 37.2881 132.123 37.6091 131.692 37.6091H129.264C128.832 37.6091 128.455 37.2346 128.455 36.8601V30.7613C128.455 30.3333 128.077 29.9588 127.699 29.9588H120.47C120.038 29.9588 119.715 30.3333 119.715 30.7613V36.8601C119.715 37.2881 119.337 37.6091 118.959 37.6091H116.532C116.1 37.6091 115.776 37.2346 115.776 36.8601V19.9012C115.776 19.4732 116.1 19.1523 116.532 19.1523H118.959ZM137.95 19.1523C138.381 19.1523 138.705 19.5267 138.705 19.9012V25.3045C138.705 25.7325 139.029 26.107 139.46 26.107H140.647C141.079 26.107 141.78 26.0535 142.212 26.0535C142.212 26.0535 145.341 25.8395 145.826 24.0741L147.013 19.9012C147.121 19.4732 147.553 19.1523 147.984 19.1523H150.628C151.06 19.1523 151.275 19.4732 151.167 19.9012L149.819 24.3416C149.711 24.7695 149.387 25.358 149.171 25.7325C149.171 25.7325 147.877 27.8189 146.042 28.0329C148.848 28.3539 149.387 29.5309 150.035 31.6708L151.653 36.9136C151.761 37.3416 151.545 37.6625 151.114 37.6625H148.416C147.984 37.6625 147.553 37.3416 147.445 36.9136L146.42 33.2757C146.312 32.8477 146.042 32.2593 145.772 31.8848C145.772 31.8848 144.532 30.0123 141.618 30.0123H139.46C139.029 30.0123 138.705 30.3868 138.705 30.8148V36.9136C138.705 37.3416 138.327 37.6625 137.95 37.6625H135.522C135.09 37.6625 134.713 37.2881 134.713 36.9136V19.9012C134.713 19.4732 135.09 19.1523 135.522 19.1523H137.95ZM107.576 30.1193H103.26C102.882 30.1193 102.667 29.8518 102.72 29.4774L104.717 23.3251C104.825 22.8971 105.04 22.6831 105.418 22.6831C105.742 22.6831 106.011 22.8971 106.119 23.3251L108.115 29.3704C108.277 29.7449 108.008 30.1193 107.576 30.1193ZM114.805 36.9136L109.896 22.2016C109.194 19.9012 107.738 18.7778 105.418 18.7778C103.044 18.7778 101.749 19.8477 100.94 22.2016L96.0846 36.9136C95.9767 37.3416 96.1925 37.6625 96.6241 37.6625H99.2677C99.6993 37.6625 100.131 37.3416 100.293 36.9136L100.562 36.0041L100.994 34.7737C101.156 34.3457 101.588 34.0247 102.019 34.0247H108.871C109.302 34.0247 109.788 34.3457 109.896 34.7737L110.327 36.0041L110.597 36.9136C110.705 37.3416 111.191 37.6625 111.622 37.6625H114.266C114.697 37.6625 114.967 37.2881 114.805 36.9136ZM89.5567 33.8107H85.0789C84.2157 33.8107 83.9999 33.4897 83.9459 32.9547V30.7078C83.9999 30.2798 84.1617 29.9053 84.971 29.9053H89.5567C90.7436 29.9053 91.7686 30.2263 91.7686 31.8313C91.7686 33.4897 90.7436 33.8107 89.5567 33.8107ZM89.9343 26.0535H84.7012C84.3236 26.0535 83.9999 25.679 83.9999 25.3045V24.9835V23.7531C83.9999 23.3251 84.3236 23.0041 84.7012 23.0041H93.4411C93.8727 23.0041 94.1964 22.6831 94.1964 22.2551V19.9547C94.1964 19.5267 93.8727 19.2058 93.4411 19.2058H80.7629C80.3313 19.2058 79.9536 19.5802 79.9536 19.9547V36.9136C79.9536 37.3416 80.3313 37.6625 80.7629 37.6625H83.7301C83.7841 37.6625 83.838 37.6625 83.892 37.6625H89.9343C93.4411 37.6625 95.7609 36.6996 95.7609 32.2058V31.5103C95.7609 27.07 93.4411 26.0535 89.9343 26.0535Z" fill="white"/>
<rect width="71.1599" height="7.48971" fill="black" fill-opacity="0" transform="translate(80.3857 44.5103)"/>
<path fill-rule="evenodd" clip-rule="evenodd" d="M82.9753 49.7531C83.5688 49.7531 84.1083 49.5926 84.1083 48.8971C84.1083 48.0946 83.5148 47.9876 82.9753 47.9876H81.5187V49.7531H82.9753ZM151.546 50.1276C151.546 49.8066 151.276 49.5391 150.952 49.5391C150.629 49.5391 150.359 49.8066 150.359 50.1276C150.359 50.4486 150.629 50.716 150.952 50.716C151.276 50.716 151.546 50.4486 151.546 50.1276ZM151.168 49.0576H150.629L150.413 47.0247V44.6708H150.575H151.384V44.8313V44.6708H151.546V47.0247L151.33 49.0576H151.168ZM144.64 50.716V44.6708H149.064V44.8313V45.6337H145.719V47.1317H148.578V47.2922V47.1317H148.74V47.2922V48.0946H145.719V49.7531H149.172V49.9136V50.716H144.64ZM140.702 50.8765C138.921 50.8765 137.788 49.6996 137.788 47.7737C137.788 44.6173 140.162 44.5103 140.648 44.5103C142.536 44.5103 143.129 45.6872 143.183 46.5967V46.7572H143.022H142.104V46.5967C142.05 46.2222 141.889 45.4732 140.648 45.4198C139.299 45.4198 138.921 46.4897 138.921 47.7202C138.921 49.0041 139.623 49.9136 140.702 49.9136C141.565 49.9136 142.158 49.3786 142.158 48.6296V48.4691H142.32H143.076V48.6296V48.4691H143.237V48.6296C143.183 49.5391 142.644 50.8765 140.702 50.8765ZM132.178 47.6667C132.178 48.8971 132.663 49.9136 133.958 49.9136C135.469 49.9136 135.738 48.5761 135.738 47.6667C135.738 45.6337 134.551 45.4732 133.958 45.4198C133.418 45.4732 132.178 45.6337 132.178 47.6667ZM131.26 47.1852V47.0782V47.1852ZM131.045 47.9876H130.505V50.6625H130.343H129.426V44.6708H129.588H130.505V47.0782H131.099C131.261 45.7942 132.124 44.5103 133.958 44.5103C135.63 44.5103 136.871 45.6337 136.871 47.7202C136.871 49.4321 136.008 50.93 133.958 50.93C131.8 50.8765 131.153 49.3251 131.045 47.9876ZM122.413 50.716H122.305V50.609V49.9136V49.7531L122.467 49.8066C122.521 49.8066 122.575 49.8066 122.629 49.8066C123.114 49.8066 123.6 49.3251 123.654 47.3457V44.7243H127.592V50.7695H127.43H126.513V45.6872H124.733V47.5062C124.733 49.9136 123.923 50.7695 122.79 50.7695C122.629 50.716 122.521 50.716 122.413 50.716ZM120.74 50.716H119.823V45.6337H117.234V50.5556V50.716H117.072H116.155V44.6708H120.902V50.716H120.74ZM109.734 47.0782C110.544 47.0782 110.706 46.7572 110.706 46.3292C110.706 46.0617 110.652 45.6337 109.734 45.5802H108.332V47.0782H109.734ZM109.788 49.7531C110.328 49.7531 110.975 49.6996 110.975 48.8971C110.975 48.2551 110.598 48.0946 109.788 48.0412H108.332V49.7531H109.788ZM107.253 50.716V44.6708H109.95V44.8313V44.6708C111.407 44.6708 111.839 45.5802 111.839 46.2757C111.839 46.8107 111.569 47.2387 111.191 47.5062C111.623 47.7202 112.108 48.1481 112.108 48.9506C112.108 49.8601 111.569 50.716 109.896 50.716H107.253ZM101.21 49.7531C101.372 49.7531 102.235 49.6996 102.235 48.8436C102.235 48.4156 102.128 47.9876 101.103 47.9342H99.8077V49.7531H101.21ZM98.6748 50.716V44.6708H98.8366H99.7538V47.0247H101.264C101.966 47.0247 103.261 47.3457 103.261 48.8971C103.261 50.5021 101.858 50.716 101.264 50.716H98.6748ZM95.2759 49.7531V45.6337H93.6035V46.1687C93.6035 47.5597 93.4416 48.6831 92.7942 49.7531H95.2759ZM96.9484 52H96.1391V51.8395V50.716H91.985V52H91.8231H91.0139L90.9599 49.7531H91.1218H91.5534C92.0389 49.1111 92.5784 48.0411 92.5784 46.0082V44.6708H96.4089V49.7531H97.1102V49.9136V49.7531H97.2721L97.1642 52H96.9484ZM87.615 50.7695C87.669 50.7695 87.669 50.7695 87.7229 50.7695C88.1545 50.7695 88.8019 50.609 89.2335 49.5926L91.2836 44.6708H90.2586H90.1507L90.0967 44.7778L88.8559 47.8807L87.2913 44.6708H86.2663H85.9965L88.2624 49.1646C87.9927 49.8601 87.8308 49.8066 87.5071 49.8601C87.3453 49.8601 87.1834 49.8601 87.0216 49.7531L86.8058 49.6996V50.609V50.716L86.9137 50.7695C87.1834 50.7695 87.3453 50.7695 87.615 50.7695ZM80.3857 50.716V44.6708H84.8096V44.8313V45.6337H81.4647V47.0247H83.0832C83.6767 47.0247 85.1873 47.1317 85.1873 48.8971C85.1873 49.6996 84.7557 50.716 83.0832 50.716H80.3857Z" fill="white"/>
</svg>
